<svg xmlns="http://www.w3.org/2000/svg" xmlns:xlink="http://www.w3.org/1999/xlink" width="471.155" height="500.001" viewBox="0 0 49 52">
  <defs>
    <style>
      .cls-1 {
        fill-rule: evenodd;
        fill: url(#linear-gradient);
      }
    </style>
    <linearGradient id="linear-gradient" x1="33.5" y1="61" x2="33.5" y2="9" gradientUnits="userSpaceOnUse">
      <stop offset="0" stop-color="#216383"/>
      <stop offset="1" stop-color="#71bfbc"/>
    </linearGradient>
  </defs>
  <path id="Rectangle_2_copy_2" data-name="Rectangle 2 copy 2" class="cls-1" d="M26.037,16.6a0.255,0.255,0,0,0,.061.071,10.5,10.5,0,0,1,.867.817c0.212,0.216.455,0.4,0.688,0.594a0.873,0.873,0,0,0,.186.115,4.1,4.1,0,0,0,.641.242,1.3,1.3,0,0,0,.677-0.027,0.381,0.381,0,0,0,.11-0.057c0.1-.062.193-0.125,0.286-0.192a2.357,2.357,0,0,1,.553-0.287c0.175-.065.351-0.132,0.524-0.2a0.327,0.327,0,0,0,.208-0.112,0.435,0.435,0,0,0-.17-0.133c-0.064-.053-0.136-0.1-0.2-0.155q-0.375-.357-0.745-0.719a0.784,0.784,0,0,1-.1-0.122,0.17,0.17,0,0,1,.038-0.2,1.534,1.534,0,0,1,.161-0.095c0.149-.075.3-0.147,0.447-0.223a0.253,0.253,0,0,0,.057-0.062,0.333,0.333,0,0,0-.069-0.061,4.175,4.175,0,0,1-.989-0.653c-0.024-.021-0.048-0.04-0.073-0.06a0.468,0.468,0,0,0-.459-0.139,1.244,1.244,0,0,0-.625.165,3.507,3.507,0,0,0-.581.367,5.762,5.762,0,0,1-.67.461,8.68,8.68,0,0,0-.768.54,0.242,0.242,0,0,0-.061.07A0.069,0.069,0,0,0,26.037,16.6Zm1.871-3.494a3.38,3.38,0,0,0,.111.362,1.8,1.8,0,0,0,.432.688c0.09,0.088.175,0.182,0.271,0.262,0.329,0.275.656,0.553,0.994,0.817a3.361,3.361,0,0,0,.877.477,0.175,0.175,0,0,0,.12.008c0.119-.037.238-0.071,0.357-0.11a0.058,0.058,0,0,0,.028-0.048c-0.008-.052-0.023-0.1-0.042-0.176,0-.039-0.014-0.1-0.019-0.164-0.024-.3-0.046-0.61-0.069-0.915,0-.011,0-0.021,0-0.031a0.186,0.186,0,0,1,.236-0.211c0.182,0.043.363,0.093,0.544,0.138q0.136,0.034.274,0.059a0.081,0.081,0,0,0,.049-0.025,0.033,0.033,0,0,0,0-.03,1.174,1.174,0,0,0-.079-0.135,6.377,6.377,0,0,0-.736-0.859c-0.137-.129-0.26-0.273-0.388-0.411-0.078-.085-0.149-0.177-0.23-0.258a2.5,2.5,0,0,0-1.018-.652c-0.2-.063-0.4-0.118-0.6-0.172s-0.4-.112-0.6-0.166q-0.392-.106-0.784-0.208a0.9,0.9,0,0,0-.124-0.017,0.067,0.067,0,0,0-.075.075c0.012,0.051.021,0.1,0.037,0.154C27.63,12.073,27.784,12.587,27.908,13.11Zm3.356-.422a0.685,0.685,0,0,0,.282.537,5.291,5.291,0,0,1,.8,1.051,0.206,0.206,0,0,0,.134.122,0.068,0.068,0,0,0,.054-0.015,0.1,0.1,0,0,0,.023-0.057,1.587,1.587,0,0,1,.221-0.586,4.933,4.933,0,0,1,.612-0.838c0.133-.149.2-0.149,0.331,0,0.078,0.084.149,0.176,0.219,0.267,0.038,0.05.064,0.11,0.106,0.156a0.566,0.566,0,0,0,.235.241,1.018,1.018,0,0,0,.1-0.292,1.241,1.241,0,0,0,.05-0.375c0-.179,0-0.359,0-0.538h0c0-.158,0-0.317,0-0.475a2.62,2.62,0,0,0-.076-0.564,1.326,1.326,0,0,0-.261-0.535c-0.2-.257-0.4-0.516-0.605-0.766-0.255-.306-0.521-0.6-0.783-0.9a1.449,1.449,0,0,0-.113-0.108,0.072,0.072,0,0,0-.084.013,0.39,0.39,0,0,0-.039.049c-0.145.268-.291,0.536-0.433,0.806-0.1.2-.2,0.394-0.3,0.591-0.091.178-.191,0.351-0.277,0.532a3.14,3.14,0,0,0-.225.656,2.055,2.055,0,0,0-.015.817C31.234,12.544,31.256,12.615,31.264,12.688Zm3.034,3.5a0.1,0.1,0,0,0,.056,0c0.118-.087.234-0.176,0.35-0.265a3.381,3.381,0,0,1,.989-0.46,0.519,0.519,0,0,0,.254-0.17,0.859,0.859,0,0,0,.19-0.359,7.213,7.213,0,0,0,.165-1,0.128,0.128,0,0,0-.007-0.062,0.075,0.075,0,0,0-.04-0.039,0.11,0.11,0,0,0-.06.005c-0.239.074-.478,0.145-0.716,0.224a3.342,3.342,0,0,0-.349.137,1.164,1.164,0,0,0-.393.307,0.428,0.428,0,0,0-.108.286,3.934,3.934,0,0,1-.18,1.025,2.861,2.861,0,0,1-.153.345A0.041,0.041,0,0,0,34.3,16.188Zm0.3-1.948a0.047,0.047,0,0,0,.074.027,2.221,2.221,0,0,1,.858-0.433c0.229-.068.456-0.146,0.685-0.216a0.744,0.744,0,0,1,.153-0.023,0.14,0.14,0,0,1,.131.112,0.5,0.5,0,0,1,.006.094c-0.011.115-.025,0.23-0.036,0.346s-0.017.209-.024,0.314a0.033,0.033,0,0,0,.015.026,0.043,0.043,0,0,0,.03,0,0.061,0.061,0,0,0,.025-0.017,6.994,6.994,0,0,0,.664-0.956,1.31,1.31,0,0,0,.174-0.664,6.436,6.436,0,0,0-.026-0.79,3.3,3.3,0,0,1-.014-0.348c-0.006-.338-0.01-0.675-0.017-1.013,0-.063-0.011-0.125-0.017-0.188a0.087,0.087,0,0,0-.069-0.053,0.832,0.832,0,0,0-.12.031c-0.3.118-.6,0.233-0.9,0.358a4.5,4.5,0,0,1-.651.216,1.553,1.553,0,0,0-.676.377c-0.046.042-.088,0.089-0.132,0.134a0.367,0.367,0,0,0-.1.286c0.007,0.179,0,.359,0,0.538h0c0,0.137,0,.275,0,0.412a1.836,1.836,0,0,1-.077.593c-0.032.111-.064,0.223-0.092,0.335a0.233,0.233,0,0,0,.017.184A1.168,1.168,0,0,1,34.6,14.24Zm2.608-.39a9.8,9.8,0,0,1-.814,1.082,1.941,1.941,0,0,0-.2.389,0.03,0.03,0,0,0,.022.049,1.919,1.919,0,0,1,.619.2c0.245,0.115.491,0.23,0.735,0.348a0.62,0.62,0,0,1,.129.086,0.182,0.182,0,0,1,.023.231,0.892,0.892,0,0,1-.06.073l-0.582.619q-0.172.183-.343,0.366a0.037,0.037,0,0,0,0,.031,0.032,0.032,0,0,0,.02.018c0.061,0.006.123,0.011,0.154,0.013a6.1,6.1,0,0,0,.9-0.124,2.856,2.856,0,0,0,.33-0.094c0.227-.078.449-0.167,0.677-0.24a1.2,1.2,0,0,0,.545-0.352A10,10,0,0,0,40,15.729a6.993,6.993,0,0,1,.5-0.645,2.7,2.7,0,0,0,.378-0.579,0.085,0.085,0,0,0-.036-0.107c-0.187-.091-0.375-0.183-0.564-0.271-0.114-.052-0.232-0.093-0.346-0.144a4.234,4.234,0,0,0-.8-0.27c-0.122-.027-0.241-0.064-0.36-0.1a1.908,1.908,0,0,0-1.4.1A0.37,0.37,0,0,0,37.209,13.85ZM40.34,19.3c-0.169-.265-0.335-0.534-0.508-0.8a3.744,3.744,0,0,0-.565-0.672,2.757,2.757,0,0,0-.886-0.518,0.206,0.206,0,0,0-.152,0,5.055,5.055,0,0,1-1.376.244c-0.051,0-.1.012-0.154,0.019a0.052,0.052,0,0,0-.032.074c0.01,0.019.018,0.038,0.029,0.056,0.033,0.054.063,0.109,0.1,0.161a6.079,6.079,0,0,1,.48.886,0.725,0.725,0,0,1,.05.148,0.144,0.144,0,0,1-.092.149,1.855,1.855,0,0,1-.184.023,0.663,0.663,0,0,0-.245.024,0.059,0.059,0,0,0-.024.05,0.262,0.262,0,0,0,.039.085c0.07,0.1.139,0.21,0.214,0.311a3.089,3.089,0,0,1,.338.53,0.308,0.308,0,0,0,.154.148c0.093,0.046.188,0.091,0.279,0.142a1.514,1.514,0,0,0,.813.175c0.083,0,.166-0.011.269-0.018a11.869,11.869,0,0,0,1.681-.2c0.1-.017.2-0.045,0.3-0.069A0.053,0.053,0,0,0,40.9,20.18q-0.058-.094-0.117-0.186Zm-3.194.765a0.888,0.888,0,0,0-.08-0.136c-0.163-.232-0.327-0.462-0.491-0.693a0.245,0.245,0,0,0-.209-0.115,3.374,3.374,0,0,1-.558-0.047,0.071,0.071,0,0,0-.082.1,1.43,1.43,0,0,1-.017.627c-0.073.307-.142,0.615-0.215,0.922a0.379,0.379,0,0,1-.057.111,0.135,0.135,0,0,1-.166.045c-0.045-.025-0.09-0.052-0.133-0.082-0.249-.172-0.5-0.347-0.746-0.518a1.22,1.22,0,0,1-.39-0.4c-0.062-.109-0.086-0.109-0.151-0.024a1.4,1.4,0,0,1-.174.222,0.3,0.3,0,0,0-.078.344,2.385,2.385,0,0,0,.171.474,5.816,5.816,0,0,1,.3.727,3.058,3.058,0,0,0,.31.619,1.151,1.151,0,0,0,.373.374c0.319,0.2.645,0.385,0.981,0.552,0.411,0.2.816,0.419,1.209,0.655a0.93,0.93,0,0,0,.112.054,0.1,0.1,0,0,0,.123-0.065c0.019-.071.04-0.142,0.051-0.215q0.156-.967.308-1.935c0.016-.1.018-0.21,0.026-0.315a1.464,1.464,0,0,0-.119-0.617C37.35,20.507,37.248,20.288,37.146,20.069ZM33.685,21.18a4.542,4.542,0,0,1-.3-0.763A0.057,0.057,0,0,0,33.3,20.38a5.756,5.756,0,0,0-.563.337,0.833,0.833,0,0,1-.106.065,0.178,0.178,0,0,1-.242-0.075c-0.035-.076-0.062-0.156-0.093-0.234s-0.054-.136-0.082-0.2a0.053,0.053,0,0,0-.079-0.009l-0.27.306a4.848,4.848,0,0,1-.708.71,0.288,0.288,0,0,0-.1.156,2.02,2.02,0,0,0-.056.486,2,2,0,0,0,.065.578c0.037,0.131.065,0.266,0.095,0.4a3.009,3.009,0,0,0,.232.686,4.276,4.276,0,0,1,.235.685c0.024,0.08.05,0.16,0.075,0.24a0.048,0.048,0,0,0,.077.015c0.041-.033.082-0.065,0.12-0.1q0.359-.328.716-0.658a3.445,3.445,0,0,0,.245-0.243q0.312-.353.615-0.714a2.422,2.422,0,0,0,.434-0.762,0.42,0.42,0,0,0,0-.308C33.832,21.551,33.769,21.361,33.685,21.18ZM29.9,16.331a0.06,0.06,0,0,0-.017.1c0.042,0.046.084,0.094,0.129,0.137,0.181,0.174.36,0.35,0.545,0.52a2.451,2.451,0,0,0,.272.21,1.016,1.016,0,0,0,.468.16,0.588,0.588,0,0,0,.388-0.076,2.212,2.212,0,0,1,.915-0.292c0.1-.011.2-0.038,0.306-0.056a0.159,0.159,0,0,0,.159-0.192A0.146,0.146,0,0,0,33,16.71c-0.177-.13-0.35-0.264-0.532-0.387-0.129-.088-0.268-0.161-0.4-0.239a0.548,0.548,0,0,0-.112-0.054c-0.2-.06-0.4-0.12-0.6-0.173a0.991,0.991,0,0,0-.177-0.021,0.769,0.769,0,0,0-.314.047A9.242,9.242,0,0,0,29.9,16.331Zm2.333-1.8c-0.312-.077-0.624-0.157-0.936-0.232-0.093-.022-0.126.015-0.121,0.122,0,0.032,0,.063.006,0.095s0.006,0.084.009,0.126,0.006,0.084.009,0.126h0c0,0.126.008,0.253,0.015,0.379a0.919,0.919,0,0,0,.1.394,0.26,0.26,0,0,0,.159.14c0.15,0.043.3,0.085,0.448,0.132a0.973,0.973,0,0,1,.2.079,5.8,5.8,0,0,1,.764.485c0.073,0.059.151,0.112,0.228,0.165a0.092,0.092,0,0,0,.115.006c0.043-.03.088-0.056,0.131-0.085a0.108,0.108,0,0,0,.046-0.135c-0.032-.122-0.073-0.242-0.1-0.365a1.538,1.538,0,0,0-.214-0.521,5.008,5.008,0,0,0-.481-0.659A0.745,0.745,0,0,0,32.236,14.535ZM34.4,15.109a1.677,1.677,0,0,0,.021-0.44c-0.005-.095-0.012-0.189-0.015-0.284a0.765,0.765,0,0,0-.152-0.44c-0.031-.042-0.059-0.086-0.09-0.129-0.148-.2-0.311-0.394-0.443-0.609a0.762,0.762,0,0,0-.1-0.117,0.09,0.09,0,0,0-.136,0,3.952,3.952,0,0,0-.421.546c-0.068.106-.128,0.217-0.191,0.325a0.93,0.93,0,0,0-.111.608,0.291,0.291,0,0,0,.045.115c0.034,0.053.079,0.1,0.114,0.149,0.126,0.18.253,0.36,0.373,0.544a1.625,1.625,0,0,1,.213.522c0.034,0.143.078,0.283,0.119,0.424a0.1,0.1,0,0,0,.092.073,1.454,1.454,0,0,0,.184.026,0.1,0.1,0,0,0,.077-0.039c0.075-.185.159-0.365,0.252-0.542a0.83,0.83,0,0,0,.067-0.209C34.337,15.46,34.37,15.285,34.4,15.109Zm3.075,1.085a0.061,0.061,0,0,0-.006-0.084,0.5,0.5,0,0,0-.05-0.037c-0.055-.03-0.11-0.06-0.166-0.086-0.217-.1-0.437-0.194-0.651-0.3a0.976,0.976,0,0,0-.636-0.081,2.909,2.909,0,0,0-.9.326,4.386,4.386,0,0,0-.824.618,0.079,0.079,0,0,0,.01.132c0.015,0.014.032,0.027,0.048,0.04a0.534,0.534,0,0,1,.218.4,0.1,0.1,0,0,0,.078.087,2.147,2.147,0,0,0,.781.138c0.094,0,.178.007,0.26,0,0.2-.02.392-0.044,0.587-0.074a0.762,0.762,0,0,0,.466-0.23C36.952,16.76,37.217,16.478,37.48,16.195ZM35.7,18.822a1.629,1.629,0,0,0,.329.088,2.621,2.621,0,0,0,.621,0c0.1-.015.206-0.022,0.309-0.03,0.124-.009.137-0.035,0.083-0.158a6.469,6.469,0,0,0-.494-0.875,1.128,1.128,0,0,0-.278-0.295,0.256,0.256,0,0,0-.174-0.055,1.706,1.706,0,0,0-.247.024,2.356,2.356,0,0,1-.927-0.011,0.435,0.435,0,0,0-.232-0.013,4.234,4.234,0,0,1,.853,1.188A0.26,0.26,0,0,0,35.7,18.822Zm-1.016-1.349-0.006.023,0.012,0,0,0Zm-0.656,0c0.083-.094.165-0.189,0.244-0.286a0.18,0.18,0,0,0-.016-0.231,1.031,1.031,0,0,0-.113-0.107c-0.065-.052-0.135-0.1-0.2-0.15a0.336,0.336,0,0,0-.224-0.095,0.554,0.554,0,0,0-.325.087,0.344,0.344,0,0,0-.079.1,0.491,0.491,0,0,0-.062.268,0.239,0.239,0,0,0,.062.178c0.105,0.1.209,0.2,0.321,0.3a0.257,0.257,0,0,0,.319,0A0.384,0.384,0,0,0,34.028,17.476Zm-1.84,2.036c0.117,0.338.2,0.687,0.341,1.016a0.061,0.061,0,0,0,.08.025c0.009,0,.019-0.008.028-0.013,0.152-.091.305-0.18,0.456-0.273,0.089-.055.172-0.118,0.261-0.173a1.14,1.14,0,0,0,.358-0.39,0.623,0.623,0,0,0,.094-0.357c-0.009-.035-0.023-0.1-0.042-0.156a2.1,2.1,0,0,1-.089-0.5,4.727,4.727,0,0,1-.015-0.758,0.352,0.352,0,0,0,0-.063,0.162,0.162,0,0,0-.074-0.131c-0.027-.017-0.053-0.034-0.08-0.049a0.094,0.094,0,0,0-.114.011,0.526,0.526,0,0,0-.06.073,6.568,6.568,0,0,1-.634.78,1.566,1.566,0,0,1-.382.323,0.362,0.362,0,0,0-.164.29,1.159,1.159,0,0,0,.008.22A0.54,0.54,0,0,0,32.188,19.512Zm-0.933-.324a0.825,0.825,0,0,0,.416-0.113,5.728,5.728,0,0,0,.766-0.541,1.815,1.815,0,0,0,.2-0.2c0.1-.117.212-0.232,0.308-0.356s0.194-.273.29-0.41a0.1,0.1,0,0,0,0-.117c-0.045-.058-0.089-0.116-0.138-0.171a0.12,0.12,0,0,0-.113-0.04c-0.235.039-.472,0.072-0.705,0.12a1.973,1.973,0,0,0-.544.23c-0.137.075-.273,0.15-0.412,0.222a1.193,1.193,0,0,0-.5.421c-0.176.285-.342,0.577-0.511,0.866a0.054,0.054,0,0,0,.042.09l0.125,0H30.85v0h0.4Zm2.639-.253a7.546,7.546,0,0,0,.264.81,0.712,0.712,0,0,0,.187.251,0.5,0.5,0,0,0,.048.04l0.853,0.584A0.034,0.034,0,0,0,35.3,20.6a0.4,0.4,0,0,0,.04-0.084c0.064-.266.128-0.532,0.188-0.8a1.192,1.192,0,0,0-.052-0.683,4.056,4.056,0,0,0-.668-1.136,2.832,2.832,0,0,0-.413-0.384,0.1,0.1,0,0,0-.139.01l-0.21.187a0.27,0.27,0,0,0-.2.337,0.353,0.353,0,0,1,0,.061A6.482,6.482,0,0,0,33.894,18.934Zm-2.61,1.97a10.166,10.166,0,0,0,.786-0.9,0.118,0.118,0,0,0,.03-0.117,3.5,3.5,0,0,1-.173-0.671,0.032,0.032,0,0,0-.05-0.022,0.194,0.194,0,0,0-.029.01,1.347,1.347,0,0,1-.808.184c-0.228-.009-0.457,0-0.686,0-0.062,0-.125,0-0.187,0a0.149,0.149,0,0,1-.121-0.209,0.978,0.978,0,0,1,.052-0.114q0.1-.179.2-0.355c0.048-.082.1-0.16,0.145-0.244a2.692,2.692,0,0,1,.411-0.593,0.032,0.032,0,0,0-.042-0.047c-0.243.093-.485,0.187-0.729,0.279a1.833,1.833,0,0,0-.36.187c-0.236.155-.475,0.3-0.708,0.462-0.155.105-.3,0.221-0.453,0.336a1.512,1.512,0,0,0-.467.623,3.065,3.065,0,0,0-.13.356c-0.157.558-.363,1.1-0.548,1.648a1.875,1.875,0,0,0-.056.212,0.056,0.056,0,0,0,.034.042,0.506,0.506,0,0,0,.123.012c0.187,0,.374-0.011.561-0.017,0,0,0,0,0-.005,0.1,0,.208,0,0.312,0,0.166-.006.332-0.016,0.5-0.025,0.145-.008.29-0.021,0.436-0.025a2.513,2.513,0,0,0,.493-0.075,1.9,1.9,0,0,0,.809-0.39c0.16-.134.326-0.261,0.489-0.393A1.941,1.941,0,0,0,31.284,20.9Zm26.63-4.244L33.439,28.611h0L33.523,61h0L58,49.048h0L57.914,16.66h0ZM9,16.846L33.489,28.626h0l0.127,32.364h0L9.129,49.21h0L9,16.846H9Z" transform="translate(-9 -9)"/>
</svg>
